<svg width="45" height="45" viewBox="0 0 45 45" fill="none" xmlns="http://www.w3.org/2000/svg">
<path d="M45 22.5C45 34.9264 34.9264 45 22.5 45C10.0736 45 0 34.9264 0 22.5C0 10.0736 10.0736 8.85282e-07 22.5 8.85282e-07C34.9264 8.85282e-07 45 10.0736 45 22.5Z" fill="#F4D115"/>
<path d="M8.68 32V14.312H13.072L17.632 25.064L22.192 14.312H26.56V32H22.384V22.28L18.688 31.232H16.576L12.856 22.28V32H8.68Z" fill="#313638"/>
<path d="M22.305 32V14.312H26.793V21.344L32.265 14.312H37.233L30.993 22.016L37.233 32H32.457L28.473 25.16L26.793 27.224V32H22.305Z" fill="#313638"/>
<circle cx="22.5474" cy="22.5474" r="20.8158" stroke="#313638"/>
</svg>
